<svg xmlns="http://www.w3.org/2000/svg" version="1.1" xmlns:xlink="http://www.w3.org/1999/xlink" xmlns:svgjs="http://svgjs.dev/svgjs" width="1440" height="560" preserveAspectRatio="none" viewBox="0 0 1440 560"><g mask="url(&quot;#SvgjsMask1000&quot;)" fill="none"><rect width="1440" height="560" x="0" y="0" fill="#0e2a47"></rect><path d="M260.966,283.649C306.618,284.999,356.005,270.25,376.815,229.595C396.496,191.146,370.244,149.491,348.84,111.975C327.142,73.943,304.721,28.177,260.966,26.542C215.588,24.846,182.259,64.864,160.931,104.954C141.096,142.238,135.78,186.224,156.409,223.075C177.497,260.745,217.814,282.373,260.966,283.649" fill="rgba(28, 83, 142, 0.4)" class="triangle-float1"></path><path d="M688.8712490427022 239.19038991332104L792.3982973676028 323.02494065063354 876.2328481049153 219.49789232573286 772.7057997800147 135.6633415884204z" fill="rgba(28, 83, 142, 0.4)" class="triangle-float3"></path><path d="M-21.814,326.471C-5.282,325.994,10.708,319.9,19.722,306.033C29.629,290.792,33.094,271.333,24.405,255.366C15.377,238.775,-2.936,230.303,-21.814,229.7C-41.932,229.058,-63.321,234.846,-73.447,252.241C-83.621,269.717,-79.264,291.952,-67.717,308.553C-57.664,323.006,-39.412,326.978,-21.814,326.471" fill="rgba(28, 83, 142, 0.4)" class="triangle-float1"></path><path d="M316.088,592.307C370.309,596.405,435.131,596.271,461.996,548.995C488.715,501.974,452.05,448.69,423.96,402.475C397.466,358.887,366.948,312.826,316.088,308.946C259.357,304.618,201.153,332.792,175.368,383.51C151.283,430.884,174.257,485.422,203.959,529.492C229.621,567.569,270.302,588.846,316.088,592.307" fill="rgba(28, 83, 142, 0.4)" class="triangle-float1"></path><path d="M164.141,266.535C200.966,269.098,239.076,255.386,258.226,223.827C278.001,191.237,276.639,148.405,254.766,117.185C235.343,89.462,197.884,86.852,164.141,89.537C135.78,91.794,110.148,105.487,95.469,129.859C80.274,155.089,77.079,185.82,90.302,212.138C105.013,241.416,131.454,264.26,164.141,266.535" fill="rgba(28, 83, 142, 0.4)" class="triangle-float3"></path><path d="M462.1093762311605 45.24061210735159L373.65921379129554 31.23148263269924 359.6500843166432 119.68164507256418 448.10024675650817 133.69077454721653z" fill="rgba(28, 83, 142, 0.4)" class="triangle-float3"></path></g><defs><mask id="SvgjsMask1000"><rect width="1440" height="560" fill="#ffffff"></rect></mask><style>
                @keyframes float1 {
                    0%{transform: translate(0, 0)}
                    50%{transform: translate(-10px, 0)}
                    100%{transform: translate(0, 0)}
                }

                .triangle-float1 {
                    animation: float1 5s infinite;
                }

                @keyframes float2 {
                    0%{transform: translate(0, 0)}
                    50%{transform: translate(-5px, -5px)}
                    100%{transform: translate(0, 0)}
                }

                .triangle-float2 {
                    animation: float2 4s infinite;
                }

                @keyframes float3 {
                    0%{transform: translate(0, 0)}
                    50%{transform: translate(0, -10px)}
                    100%{transform: translate(0, 0)}
                }

                .triangle-float3 {
                    animation: float3 6s infinite;
                }
            </style></defs></svg>